<?xml version="1.0" encoding="utf-8" standalone="no"?>
<!DOCTYPE svg PUBLIC "-//W3C//DTD SVG 1.1//EN"
  "http://www.w3.org/Graphics/SVG/1.1/DTD/svg11.dtd">
<!-- Created with matplotlib (http://matplotlib.org/) -->
<svg height="751pt" version="1.1" viewBox="0 0 1299 751" width="1299pt" xmlns="http://www.w3.org/2000/svg" xmlns:xlink="http://www.w3.org/1999/xlink">
 <defs>
  <style type="text/css">
*{stroke-linecap:butt;stroke-linejoin:round;}
  </style>
 </defs>
 <g id="figure_1">
  <g id="patch_1">
   <path d="M 0 751 
L 1299 751 
L 1299 0 
L 0 0 
z
" style="fill:#ffffff;"/>
  </g>
  <g id="axes_1">
   <g id="patch_2">
    <path d="M 162.375 657.125 
L 1169.1 657.125 
L 1169.1 90.12 
L 162.375 90.12 
z
" style="fill:#ffffff;"/>
   </g>
   <g id="matplotlib.axis_1">
    <g id="xtick_1">
     <g id="line2d_1">
      <defs>
       <path d="M 0 0 
L 0 3.5 
" id="m88c55887b8" style="stroke:#000000;stroke-width:0.8;"/>
      </defs>
      <g>
       <use style="stroke:#000000;stroke-width:0.8;" x="207.209844" xlink:href="#m88c55887b8" y="657.125"/>
      </g>
     </g>
     <g id="text_1">
      <!-- 0 -->
      <defs>
       <path d="M 31.78125 66.40625 
Q 24.171875 66.40625 20.328125 58.90625 
Q 16.5 51.421875 16.5 36.375 
Q 16.5 21.390625 20.328125 13.890625 
Q 24.171875 6.390625 31.78125 6.390625 
Q 39.453125 6.390625 43.28125 13.890625 
Q 47.125 21.390625 47.125 36.375 
Q 47.125 51.421875 43.28125 58.90625 
Q 39.453125 66.40625 31.78125 66.40625 
z
M 31.78125 74.21875 
Q 44.046875 74.21875 50.515625 64.515625 
Q 56.984375 54.828125 56.984375 36.375 
Q 56.984375 17.96875 50.515625 8.265625 
Q 44.046875 -1.421875 31.78125 -1.421875 
Q 19.53125 -1.421875 13.0625 8.265625 
Q 6.59375 17.96875 6.59375 36.375 
Q 6.59375 54.828125 13.0625 64.515625 
Q 19.53125 74.21875 31.78125 74.21875 
z
" id="DejaVuSans-30"/>
      </defs>
      <g transform="translate(204.028594 671.723438)scale(0.1 -0.1)">
       <use xlink:href="#DejaVuSans-30"/>
      </g>
     </g>
    </g>
    <g id="xtick_2">
     <g id="line2d_2">
      <g>
       <use style="stroke:#000000;stroke-width:0.8;" x="392.286597" xlink:href="#m88c55887b8" y="657.125"/>
      </g>
     </g>
     <g id="text_2">
      <!-- 200 -->
      <defs>
       <path d="M 19.1875 8.296875 
L 53.609375 8.296875 
L 53.609375 0 
L 7.328125 0 
L 7.328125 8.296875 
Q 12.9375 14.109375 22.625 23.890625 
Q 32.328125 33.6875 34.8125 36.53125 
Q 39.546875 41.84375 41.421875 45.53125 
Q 43.3125 49.21875 43.3125 52.78125 
Q 43.3125 58.59375 39.234375 62.25 
Q 35.15625 65.921875 28.609375 65.921875 
Q 23.96875 65.921875 18.8125 64.3125 
Q 13.671875 62.703125 7.8125 59.421875 
L 7.8125 69.390625 
Q 13.765625 71.78125 18.9375 73 
Q 24.125 74.21875 28.421875 74.21875 
Q 39.75 74.21875 46.484375 68.546875 
Q 53.21875 62.890625 53.21875 53.421875 
Q 53.21875 48.921875 51.53125 44.890625 
Q 49.859375 40.875 45.40625 35.40625 
Q 44.1875 33.984375 37.640625 27.21875 
Q 31.109375 20.453125 19.1875 8.296875 
z
" id="DejaVuSans-32"/>
      </defs>
      <g transform="translate(382.742847 671.723438)scale(0.1 -0.1)">
       <use xlink:href="#DejaVuSans-32"/>
       <use x="63.623047" xlink:href="#DejaVuSans-30"/>
       <use x="127.246094" xlink:href="#DejaVuSans-30"/>
      </g>
     </g>
    </g>
    <g id="xtick_3">
     <g id="line2d_3">
      <g>
       <use style="stroke:#000000;stroke-width:0.8;" x="577.36335" xlink:href="#m88c55887b8" y="657.125"/>
      </g>
     </g>
     <g id="text_3">
      <!-- 400 -->
      <defs>
       <path d="M 37.796875 64.3125 
L 12.890625 25.390625 
L 37.796875 25.390625 
z
M 35.203125 72.90625 
L 47.609375 72.90625 
L 47.609375 25.390625 
L 58.015625 25.390625 
L 58.015625 17.1875 
L 47.609375 17.1875 
L 47.609375 0 
L 37.796875 0 
L 37.796875 17.1875 
L 4.890625 17.1875 
L 4.890625 26.703125 
z
" id="DejaVuSans-34"/>
      </defs>
      <g transform="translate(567.8196 671.723438)scale(0.1 -0.1)">
       <use xlink:href="#DejaVuSans-34"/>
       <use x="63.623047" xlink:href="#DejaVuSans-30"/>
       <use x="127.246094" xlink:href="#DejaVuSans-30"/>
      </g>
     </g>
    </g>
    <g id="xtick_4">
     <g id="line2d_4">
      <g>
       <use style="stroke:#000000;stroke-width:0.8;" x="762.440104" xlink:href="#m88c55887b8" y="657.125"/>
      </g>
     </g>
     <g id="text_4">
      <!-- 600 -->
      <defs>
       <path d="M 33.015625 40.375 
Q 26.375 40.375 22.484375 35.828125 
Q 18.609375 31.296875 18.609375 23.390625 
Q 18.609375 15.53125 22.484375 10.953125 
Q 26.375 6.390625 33.015625 6.390625 
Q 39.65625 6.390625 43.53125 10.953125 
Q 47.40625 15.53125 47.40625 23.390625 
Q 47.40625 31.296875 43.53125 35.828125 
Q 39.65625 40.375 33.015625 40.375 
z
M 52.59375 71.296875 
L 52.59375 62.3125 
Q 48.875 64.0625 45.09375 64.984375 
Q 41.3125 65.921875 37.59375 65.921875 
Q 27.828125 65.921875 22.671875 59.328125 
Q 17.53125 52.734375 16.796875 39.40625 
Q 19.671875 43.65625 24.015625 45.921875 
Q 28.375 48.1875 33.59375 48.1875 
Q 44.578125 48.1875 50.953125 41.515625 
Q 57.328125 34.859375 57.328125 23.390625 
Q 57.328125 12.15625 50.6875 5.359375 
Q 44.046875 -1.421875 33.015625 -1.421875 
Q 20.359375 -1.421875 13.671875 8.265625 
Q 6.984375 17.96875 6.984375 36.375 
Q 6.984375 53.65625 15.1875 63.9375 
Q 23.390625 74.21875 37.203125 74.21875 
Q 40.921875 74.21875 44.703125 73.484375 
Q 48.484375 72.75 52.59375 71.296875 
z
" id="DejaVuSans-36"/>
      </defs>
      <g transform="translate(752.896354 671.723438)scale(0.1 -0.1)">
       <use xlink:href="#DejaVuSans-36"/>
       <use x="63.623047" xlink:href="#DejaVuSans-30"/>
       <use x="127.246094" xlink:href="#DejaVuSans-30"/>
      </g>
     </g>
    </g>
    <g id="xtick_5">
     <g id="line2d_5">
      <g>
       <use style="stroke:#000000;stroke-width:0.8;" x="947.516857" xlink:href="#m88c55887b8" y="657.125"/>
      </g>
     </g>
     <g id="text_5">
      <!-- 800 -->
      <defs>
       <path d="M 31.78125 34.625 
Q 24.75 34.625 20.71875 30.859375 
Q 16.703125 27.09375 16.703125 20.515625 
Q 16.703125 13.921875 20.71875 10.15625 
Q 24.75 6.390625 31.78125 6.390625 
Q 38.8125 6.390625 42.859375 10.171875 
Q 46.921875 13.96875 46.921875 20.515625 
Q 46.921875 27.09375 42.890625 30.859375 
Q 38.875 34.625 31.78125 34.625 
z
M 21.921875 38.8125 
Q 15.578125 40.375 12.03125 44.71875 
Q 8.5 49.078125 8.5 55.328125 
Q 8.5 64.0625 14.71875 69.140625 
Q 20.953125 74.21875 31.78125 74.21875 
Q 42.671875 74.21875 48.875 69.140625 
Q 55.078125 64.0625 55.078125 55.328125 
Q 55.078125 49.078125 51.53125 44.71875 
Q 48 40.375 41.703125 38.8125 
Q 48.828125 37.15625 52.796875 32.3125 
Q 56.78125 27.484375 56.78125 20.515625 
Q 56.78125 9.90625 50.3125 4.234375 
Q 43.84375 -1.421875 31.78125 -1.421875 
Q 19.734375 -1.421875 13.25 4.234375 
Q 6.78125 9.90625 6.78125 20.515625 
Q 6.78125 27.484375 10.78125 32.3125 
Q 14.796875 37.15625 21.921875 38.8125 
z
M 18.3125 54.390625 
Q 18.3125 48.734375 21.84375 45.5625 
Q 25.390625 42.390625 31.78125 42.390625 
Q 38.140625 42.390625 41.71875 45.5625 
Q 45.3125 48.734375 45.3125 54.390625 
Q 45.3125 60.0625 41.71875 63.234375 
Q 38.140625 66.40625 31.78125 66.40625 
Q 25.390625 66.40625 21.84375 63.234375 
Q 18.3125 60.0625 18.3125 54.390625 
z
" id="DejaVuSans-38"/>
      </defs>
      <g transform="translate(937.973107 671.723438)scale(0.1 -0.1)">
       <use xlink:href="#DejaVuSans-38"/>
       <use x="63.623047" xlink:href="#DejaVuSans-30"/>
       <use x="127.246094" xlink:href="#DejaVuSans-30"/>
      </g>
     </g>
    </g>
    <g id="xtick_6">
     <g id="line2d_6">
      <g>
       <use style="stroke:#000000;stroke-width:0.8;" x="1132.59361" xlink:href="#m88c55887b8" y="657.125"/>
      </g>
     </g>
     <g id="text_6">
      <!-- 1000 -->
      <defs>
       <path d="M 12.40625 8.296875 
L 28.515625 8.296875 
L 28.515625 63.921875 
L 10.984375 60.40625 
L 10.984375 69.390625 
L 28.421875 72.90625 
L 38.28125 72.90625 
L 38.28125 8.296875 
L 54.390625 8.296875 
L 54.390625 0 
L 12.40625 0 
z
" id="DejaVuSans-31"/>
      </defs>
      <g transform="translate(1119.86861 671.723438)scale(0.1 -0.1)">
       <use xlink:href="#DejaVuSans-31"/>
       <use x="63.623047" xlink:href="#DejaVuSans-30"/>
       <use x="127.246094" xlink:href="#DejaVuSans-30"/>
       <use x="190.869141" xlink:href="#DejaVuSans-30"/>
      </g>
     </g>
    </g>
    <g id="text_7">
     <!-- time (min) -->
     <defs>
      <path d="M 18.3125 70.21875 
L 18.3125 54.6875 
L 36.8125 54.6875 
L 36.8125 47.703125 
L 18.3125 47.703125 
L 18.3125 18.015625 
Q 18.3125 11.328125 20.140625 9.421875 
Q 21.96875 7.515625 27.59375 7.515625 
L 36.8125 7.515625 
L 36.8125 0 
L 27.59375 0 
Q 17.1875 0 13.234375 3.875 
Q 9.28125 7.765625 9.28125 18.015625 
L 9.28125 47.703125 
L 2.6875 47.703125 
L 2.6875 54.6875 
L 9.28125 54.6875 
L 9.28125 70.21875 
z
" id="DejaVuSans-74"/>
      <path d="M 9.421875 54.6875 
L 18.40625 54.6875 
L 18.40625 0 
L 9.421875 0 
z
M 9.421875 75.984375 
L 18.40625 75.984375 
L 18.40625 64.59375 
L 9.421875 64.59375 
z
" id="DejaVuSans-69"/>
      <path d="M 52 44.1875 
Q 55.375 50.25 60.0625 53.125 
Q 64.75 56 71.09375 56 
Q 79.640625 56 84.28125 50.015625 
Q 88.921875 44.046875 88.921875 33.015625 
L 88.921875 0 
L 79.890625 0 
L 79.890625 32.71875 
Q 79.890625 40.578125 77.09375 44.375 
Q 74.3125 48.1875 68.609375 48.1875 
Q 61.625 48.1875 57.5625 43.546875 
Q 53.515625 38.921875 53.515625 30.90625 
L 53.515625 0 
L 44.484375 0 
L 44.484375 32.71875 
Q 44.484375 40.625 41.703125 44.40625 
Q 38.921875 48.1875 33.109375 48.1875 
Q 26.21875 48.1875 22.15625 43.53125 
Q 18.109375 38.875 18.109375 30.90625 
L 18.109375 0 
L 9.078125 0 
L 9.078125 54.6875 
L 18.109375 54.6875 
L 18.109375 46.1875 
Q 21.1875 51.21875 25.484375 53.609375 
Q 29.78125 56 35.6875 56 
Q 41.65625 56 45.828125 52.96875 
Q 50 49.953125 52 44.1875 
z
" id="DejaVuSans-6d"/>
      <path d="M 56.203125 29.59375 
L 56.203125 25.203125 
L 14.890625 25.203125 
Q 15.484375 15.921875 20.484375 11.0625 
Q 25.484375 6.203125 34.421875 6.203125 
Q 39.59375 6.203125 44.453125 7.46875 
Q 49.3125 8.734375 54.109375 11.28125 
L 54.109375 2.78125 
Q 49.265625 0.734375 44.1875 -0.34375 
Q 39.109375 -1.421875 33.890625 -1.421875 
Q 20.796875 -1.421875 13.15625 6.1875 
Q 5.515625 13.8125 5.515625 26.8125 
Q 5.515625 40.234375 12.765625 48.109375 
Q 20.015625 56 32.328125 56 
Q 43.359375 56 49.78125 48.890625 
Q 56.203125 41.796875 56.203125 29.59375 
z
M 47.21875 32.234375 
Q 47.125 39.59375 43.09375 43.984375 
Q 39.0625 48.390625 32.421875 48.390625 
Q 24.90625 48.390625 20.390625 44.140625 
Q 15.875 39.890625 15.1875 32.171875 
z
" id="DejaVuSans-65"/>
      <path id="DejaVuSans-20"/>
      <path d="M 31 75.875 
Q 24.46875 64.65625 21.28125 53.65625 
Q 18.109375 42.671875 18.109375 31.390625 
Q 18.109375 20.125 21.3125 9.0625 
Q 24.515625 -2 31 -13.1875 
L 23.1875 -13.1875 
Q 15.875 -1.703125 12.234375 9.375 
Q 8.59375 20.453125 8.59375 31.390625 
Q 8.59375 42.28125 12.203125 53.3125 
Q 15.828125 64.359375 23.1875 75.875 
z
" id="DejaVuSans-28"/>
      <path d="M 54.890625 33.015625 
L 54.890625 0 
L 45.90625 0 
L 45.90625 32.71875 
Q 45.90625 40.484375 42.875 44.328125 
Q 39.84375 48.1875 33.796875 48.1875 
Q 26.515625 48.1875 22.3125 43.546875 
Q 18.109375 38.921875 18.109375 30.90625 
L 18.109375 0 
L 9.078125 0 
L 9.078125 54.6875 
L 18.109375 54.6875 
L 18.109375 46.1875 
Q 21.34375 51.125 25.703125 53.5625 
Q 30.078125 56 35.796875 56 
Q 45.21875 56 50.046875 50.171875 
Q 54.890625 44.34375 54.890625 33.015625 
z
" id="DejaVuSans-6e"/>
      <path d="M 8.015625 75.875 
L 15.828125 75.875 
Q 23.140625 64.359375 26.78125 53.3125 
Q 30.421875 42.28125 30.421875 31.390625 
Q 30.421875 20.453125 26.78125 9.375 
Q 23.140625 -1.703125 15.828125 -13.1875 
L 8.015625 -13.1875 
Q 14.5 -2 17.703125 9.0625 
Q 20.90625 20.125 20.90625 31.390625 
Q 20.90625 42.671875 17.703125 53.65625 
Q 14.5 64.65625 8.015625 75.875 
z
" id="DejaVuSans-29"/>
     </defs>
     <g transform="translate(639.522656 685.401562)scale(0.1 -0.1)">
      <use xlink:href="#DejaVuSans-74"/>
      <use x="39.208984" xlink:href="#DejaVuSans-69"/>
      <use x="66.992188" xlink:href="#DejaVuSans-6d"/>
      <use x="164.404297" xlink:href="#DejaVuSans-65"/>
      <use x="225.927734" xlink:href="#DejaVuSans-20"/>
      <use x="257.714844" xlink:href="#DejaVuSans-28"/>
      <use x="296.728516" xlink:href="#DejaVuSans-6d"/>
      <use x="394.140625" xlink:href="#DejaVuSans-69"/>
      <use x="421.923828" xlink:href="#DejaVuSans-6e"/>
      <use x="485.302734" xlink:href="#DejaVuSans-29"/>
     </g>
    </g>
   </g>
   <g id="matplotlib.axis_2">
    <g id="ytick_1">
     <g id="line2d_7">
      <defs>
       <path d="M 0 0 
L -3.5 0 
" id="m93d2f133e4" style="stroke:#000000;stroke-width:0.8;"/>
      </defs>
      <g>
       <use style="stroke:#000000;stroke-width:0.8;" x="162.375" xlink:href="#m93d2f133e4" y="607.536571"/>
      </g>
     </g>
     <g id="text_8">
      <!-- 60 -->
      <g transform="translate(142.65 611.33579)scale(0.1 -0.1)">
       <use xlink:href="#DejaVuSans-36"/>
       <use x="63.623047" xlink:href="#DejaVuSans-30"/>
      </g>
     </g>
    </g>
    <g id="ytick_2">
     <g id="line2d_8">
      <g>
       <use style="stroke:#000000;stroke-width:0.8;" x="162.375" xlink:href="#m93d2f133e4" y="495.468894"/>
      </g>
     </g>
     <g id="text_9">
      <!-- 80 -->
      <g transform="translate(142.65 499.268112)scale(0.1 -0.1)">
       <use xlink:href="#DejaVuSans-38"/>
       <use x="63.623047" xlink:href="#DejaVuSans-30"/>
      </g>
     </g>
    </g>
    <g id="ytick_3">
     <g id="line2d_9">
      <g>
       <use style="stroke:#000000;stroke-width:0.8;" x="162.375" xlink:href="#m93d2f133e4" y="383.401216"/>
      </g>
     </g>
     <g id="text_10">
      <!-- 100 -->
      <g transform="translate(136.2875 387.200435)scale(0.1 -0.1)">
       <use xlink:href="#DejaVuSans-31"/>
       <use x="63.623047" xlink:href="#DejaVuSans-30"/>
       <use x="127.246094" xlink:href="#DejaVuSans-30"/>
      </g>
     </g>
    </g>
    <g id="ytick_4">
     <g id="line2d_10">
      <g>
       <use style="stroke:#000000;stroke-width:0.8;" x="162.375" xlink:href="#m93d2f133e4" y="271.333538"/>
      </g>
     </g>
     <g id="text_11">
      <!-- 120 -->
      <g transform="translate(136.2875 275.132757)scale(0.1 -0.1)">
       <use xlink:href="#DejaVuSans-31"/>
       <use x="63.623047" xlink:href="#DejaVuSans-32"/>
       <use x="127.246094" xlink:href="#DejaVuSans-30"/>
      </g>
     </g>
    </g>
    <g id="ytick_5">
     <g id="line2d_11">
      <g>
       <use style="stroke:#000000;stroke-width:0.8;" x="162.375" xlink:href="#m93d2f133e4" y="159.26586"/>
      </g>
     </g>
     <g id="text_12">
      <!-- 140 -->
      <g transform="translate(136.2875 163.065079)scale(0.1 -0.1)">
       <use xlink:href="#DejaVuSans-31"/>
       <use x="63.623047" xlink:href="#DejaVuSans-34"/>
       <use x="127.246094" xlink:href="#DejaVuSans-30"/>
      </g>
     </g>
    </g>
    <g id="text_13">
     <!-- glucose (mg/dl) -->
     <defs>
      <path d="M 45.40625 27.984375 
Q 45.40625 37.75 41.375 43.109375 
Q 37.359375 48.484375 30.078125 48.484375 
Q 22.859375 48.484375 18.828125 43.109375 
Q 14.796875 37.75 14.796875 27.984375 
Q 14.796875 18.265625 18.828125 12.890625 
Q 22.859375 7.515625 30.078125 7.515625 
Q 37.359375 7.515625 41.375 12.890625 
Q 45.40625 18.265625 45.40625 27.984375 
z
M 54.390625 6.78125 
Q 54.390625 -7.171875 48.1875 -13.984375 
Q 42 -20.796875 29.203125 -20.796875 
Q 24.46875 -20.796875 20.265625 -20.09375 
Q 16.0625 -19.390625 12.109375 -17.921875 
L 12.109375 -9.1875 
Q 16.0625 -11.328125 19.921875 -12.34375 
Q 23.78125 -13.375 27.78125 -13.375 
Q 36.625 -13.375 41.015625 -8.765625 
Q 45.40625 -4.15625 45.40625 5.171875 
L 45.40625 9.625 
Q 42.625 4.78125 38.28125 2.390625 
Q 33.9375 0 27.875 0 
Q 17.828125 0 11.671875 7.65625 
Q 5.515625 15.328125 5.515625 27.984375 
Q 5.515625 40.671875 11.671875 48.328125 
Q 17.828125 56 27.875 56 
Q 33.9375 56 38.28125 53.609375 
Q 42.625 51.21875 45.40625 46.390625 
L 45.40625 54.6875 
L 54.390625 54.6875 
z
" id="DejaVuSans-67"/>
      <path d="M 9.421875 75.984375 
L 18.40625 75.984375 
L 18.40625 0 
L 9.421875 0 
z
" id="DejaVuSans-6c"/>
      <path d="M 8.5 21.578125 
L 8.5 54.6875 
L 17.484375 54.6875 
L 17.484375 21.921875 
Q 17.484375 14.15625 20.5 10.265625 
Q 23.53125 6.390625 29.59375 6.390625 
Q 36.859375 6.390625 41.078125 11.03125 
Q 45.3125 15.671875 45.3125 23.6875 
L 45.3125 54.6875 
L 54.296875 54.6875 
L 54.296875 0 
L 45.3125 0 
L 45.3125 8.40625 
Q 42.046875 3.421875 37.71875 1 
Q 33.40625 -1.421875 27.6875 -1.421875 
Q 18.265625 -1.421875 13.375 4.4375 
Q 8.5 10.296875 8.5 21.578125 
z
M 31.109375 56 
z
" id="DejaVuSans-75"/>
      <path d="M 48.78125 52.59375 
L 48.78125 44.1875 
Q 44.96875 46.296875 41.140625 47.34375 
Q 37.3125 48.390625 33.40625 48.390625 
Q 24.65625 48.390625 19.8125 42.84375 
Q 14.984375 37.3125 14.984375 27.296875 
Q 14.984375 17.28125 19.8125 11.734375 
Q 24.65625 6.203125 33.40625 6.203125 
Q 37.3125 6.203125 41.140625 7.25 
Q 44.96875 8.296875 48.78125 10.40625 
L 48.78125 2.09375 
Q 45.015625 0.34375 40.984375 -0.53125 
Q 36.96875 -1.421875 32.421875 -1.421875 
Q 20.0625 -1.421875 12.78125 6.34375 
Q 5.515625 14.109375 5.515625 27.296875 
Q 5.515625 40.671875 12.859375 48.328125 
Q 20.21875 56 33.015625 56 
Q 37.15625 56 41.109375 55.140625 
Q 45.0625 54.296875 48.78125 52.59375 
z
" id="DejaVuSans-63"/>
      <path d="M 30.609375 48.390625 
Q 23.390625 48.390625 19.1875 42.75 
Q 14.984375 37.109375 14.984375 27.296875 
Q 14.984375 17.484375 19.15625 11.84375 
Q 23.34375 6.203125 30.609375 6.203125 
Q 37.796875 6.203125 41.984375 11.859375 
Q 46.1875 17.53125 46.1875 27.296875 
Q 46.1875 37.015625 41.984375 42.703125 
Q 37.796875 48.390625 30.609375 48.390625 
z
M 30.609375 56 
Q 42.328125 56 49.015625 48.375 
Q 55.71875 40.765625 55.71875 27.296875 
Q 55.71875 13.875 49.015625 6.21875 
Q 42.328125 -1.421875 30.609375 -1.421875 
Q 18.84375 -1.421875 12.171875 6.21875 
Q 5.515625 13.875 5.515625 27.296875 
Q 5.515625 40.765625 12.171875 48.375 
Q 18.84375 56 30.609375 56 
z
" id="DejaVuSans-6f"/>
      <path d="M 44.28125 53.078125 
L 44.28125 44.578125 
Q 40.484375 46.53125 36.375 47.5 
Q 32.28125 48.484375 27.875 48.484375 
Q 21.1875 48.484375 17.84375 46.4375 
Q 14.5 44.390625 14.5 40.28125 
Q 14.5 37.15625 16.890625 35.375 
Q 19.28125 33.59375 26.515625 31.984375 
L 29.59375 31.296875 
Q 39.15625 29.25 43.1875 25.515625 
Q 47.21875 21.78125 47.21875 15.09375 
Q 47.21875 7.46875 41.1875 3.015625 
Q 35.15625 -1.421875 24.609375 -1.421875 
Q 20.21875 -1.421875 15.453125 -0.5625 
Q 10.6875 0.296875 5.421875 2 
L 5.421875 11.28125 
Q 10.40625 8.6875 15.234375 7.390625 
Q 20.0625 6.109375 24.8125 6.109375 
Q 31.15625 6.109375 34.5625 8.28125 
Q 37.984375 10.453125 37.984375 14.40625 
Q 37.984375 18.0625 35.515625 20.015625 
Q 33.0625 21.96875 24.703125 23.78125 
L 21.578125 24.515625 
Q 13.234375 26.265625 9.515625 29.90625 
Q 5.8125 33.546875 5.8125 39.890625 
Q 5.8125 47.609375 11.28125 51.796875 
Q 16.75 56 26.8125 56 
Q 31.78125 56 36.171875 55.265625 
Q 40.578125 54.546875 44.28125 53.078125 
z
" id="DejaVuSans-73"/>
      <path d="M 25.390625 72.90625 
L 33.6875 72.90625 
L 8.296875 -9.28125 
L 0 -9.28125 
z
" id="DejaVuSans-2f"/>
      <path d="M 45.40625 46.390625 
L 45.40625 75.984375 
L 54.390625 75.984375 
L 54.390625 0 
L 45.40625 0 
L 45.40625 8.203125 
Q 42.578125 3.328125 38.25 0.953125 
Q 33.9375 -1.421875 27.875 -1.421875 
Q 17.96875 -1.421875 11.734375 6.484375 
Q 5.515625 14.40625 5.515625 27.296875 
Q 5.515625 40.1875 11.734375 48.09375 
Q 17.96875 56 27.875 56 
Q 33.9375 56 38.25 53.625 
Q 42.578125 51.265625 45.40625 46.390625 
z
M 14.796875 27.296875 
Q 14.796875 17.390625 18.875 11.75 
Q 22.953125 6.109375 30.078125 6.109375 
Q 37.203125 6.109375 41.296875 11.75 
Q 45.40625 17.390625 45.40625 27.296875 
Q 45.40625 37.203125 41.296875 42.84375 
Q 37.203125 48.484375 30.078125 48.484375 
Q 22.953125 48.484375 18.875 42.84375 
Q 14.796875 37.203125 14.796875 27.296875 
z
" id="DejaVuSans-64"/>
     </defs>
     <g transform="translate(130.207812 412.627187)rotate(-90)scale(0.1 -0.1)">
      <use xlink:href="#DejaVuSans-67"/>
      <use x="63.476562" xlink:href="#DejaVuSans-6c"/>
      <use x="91.259766" xlink:href="#DejaVuSans-75"/>
      <use x="154.638672" xlink:href="#DejaVuSans-63"/>
      <use x="209.619141" xlink:href="#DejaVuSans-6f"/>
      <use x="270.800781" xlink:href="#DejaVuSans-73"/>
      <use x="322.900391" xlink:href="#DejaVuSans-65"/>
      <use x="384.423828" xlink:href="#DejaVuSans-20"/>
      <use x="416.210938" xlink:href="#DejaVuSans-28"/>
      <use x="455.224609" xlink:href="#DejaVuSans-6d"/>
      <use x="552.636719" xlink:href="#DejaVuSans-67"/>
      <use x="616.113281" xlink:href="#DejaVuSans-2f"/>
      <use x="649.804688" xlink:href="#DejaVuSans-64"/>
      <use x="713.28125" xlink:href="#DejaVuSans-6c"/>
      <use x="741.064453" xlink:href="#DejaVuSans-29"/>
     </g>
    </g>
   </g>
   <g id="line2d_12">
    <path clip-path="url(#p52aed273a3)" d="M 236.822124 371.466008 
L 237.747508 371.837116 
L 238.672892 372.729457 
L 239.598275 373.794138 
L 240.523659 374.624423 
L 242.374427 375.884829 
L 243.29981 376.606675 
L 245.150578 377.586377 
L 247.001345 378.088098 
L 248.852113 378.312458 
L 249.777497 378.295883 
L 251.628264 377.882439 
L 253.479032 377.034387 
L 255.329799 375.793321 
L 257.180567 374.135852 
L 259.031334 372.097754 
L 260.882102 369.665876 
L 262.73287 366.879436 
L 265.509021 362.092074 
L 268.285172 356.690926 
L 271.986707 348.873976 
L 280.315161 330.859529 
L 283.091312 325.394108 
L 285.867464 320.549924 
L 287.718231 317.750196 
L 289.568999 315.293422 
L 291.419766 313.256067 
L 293.270534 311.624781 
L 295.121301 310.408352 
L 296.972069 309.648711 
L 298.822836 309.316614 
L 300.673604 309.377909 
L 302.524371 309.829032 
L 304.375139 310.63675 
L 306.225907 311.766967 
L 308.076674 313.218495 
L 309.927442 314.884105 
L 312.703593 317.676657 
L 322.882814 328.49188 
L 324.733582 330.09108 
L 326.584349 331.477091 
L 328.435117 332.613542 
L 330.285885 333.477924 
L 332.136652 334.039452 
L 333.98742 334.312333 
L 335.838187 334.308598 
L 337.688955 334.020272 
L 339.539722 333.448354 
L 341.39049 332.677172 
L 344.166641 331.178384 
L 346.942792 329.415858 
L 351.569711 326.495997 
L 354.345862 325.091692 
L 356.19663 324.446431 
L 358.047398 324.12856 
L 359.898165 324.19184 
L 361.748933 324.70945 
L 362.674316 325.159575 
L 363.5997 325.748547 
L 365.450468 327.338808 
L 367.301235 329.49357 
L 369.152003 332.25563 
L 371.00277 335.646929 
L 372.853538 339.643088 
L 374.704305 344.238914 
L 376.555073 349.425141 
L 378.40584 355.158315 
L 381.181992 364.629122 
L 383.958143 374.968371 
L 388.585062 393.387215 
L 394.137364 415.46104 
L 396.913516 425.699956 
L 399.689667 434.92012 
L 401.540435 440.363687 
L 403.391202 445.151759 
L 405.24197 449.210976 
L 407.092737 452.482252 
L 408.018121 453.808747 
L 408.943505 454.921916 
L 409.868888 455.815747 
L 410.794272 456.489356 
L 411.719656 456.940586 
L 412.64504 457.168961 
L 413.570424 457.175374 
L 414.495807 456.95632 
L 415.421191 456.515645 
L 416.346575 455.85498 
L 417.271959 454.976838 
L 418.197342 453.88442 
L 419.122726 452.584201 
L 420.973494 449.375193 
L 422.824261 445.397811 
L 424.675029 440.710122 
L 426.525796 435.376505 
L 428.376564 429.470623 
L 431.152715 419.709989 
L 433.928866 409.118058 
L 438.555785 390.373594 
L 445.033472 363.934248 
L 448.735007 349.753774 
L 451.511158 339.888116 
L 454.287309 330.876401 
L 457.063461 322.744857 
L 458.914228 317.846521 
L 460.764996 313.408459 
L 462.615763 309.376652 
L 464.466531 305.802981 
L 466.317298 302.661031 
L 468.168066 299.871951 
L 470.018833 297.473254 
L 471.869601 295.381565 
L 473.720368 293.605628 
L 475.571136 292.099516 
L 478.347287 290.203527 
L 481.123439 288.661472 
L 491.30266 283.474416 
L 494.078811 281.614973 
L 496.854963 279.409839 
L 499.631114 276.797344 
L 502.407265 273.773422 
L 505.183416 270.32556 
L 507.959568 266.516539 
L 511.661103 261.008298 
L 521.840324 245.381835 
L 524.616476 241.641309 
L 526.467243 239.428415 
L 528.318011 237.472886 
L 530.168778 235.81269 
L 532.019546 234.51246 
L 533.870313 233.563359 
L 535.721081 233.047279 
L 536.646465 232.958512 
L 538.497232 233.124047 
L 539.422616 233.380982 
L 540.348 233.76186 
L 542.198767 234.934477 
L 544.049535 236.629416 
L 545.900302 238.824076 
L 547.75107 241.521876 
L 549.601837 244.72194 
L 551.452605 248.406359 
L 553.303372 252.560397 
L 555.15414 257.117567 
L 557.930291 264.671443 
L 560.706442 272.938864 
L 564.407978 284.623402 
L 572.736431 311.114285 
L 575.512583 319.080017 
L 577.36335 323.929481 
L 579.214118 328.342988 
L 581.064885 332.221454 
L 582.915653 335.566746 
L 584.76642 338.289657 
L 586.617188 340.372207 
L 587.542572 341.166217 
L 588.467955 341.790169 
L 589.393339 342.221384 
L 590.318723 342.497214 
L 591.244107 342.594553 
L 592.169491 342.49535 
L 593.094874 342.213286 
L 594.020258 341.760709 
L 594.945642 341.148767 
L 595.871026 340.360066 
L 596.796409 339.381165 
L 598.647177 336.920031 
L 600.497944 333.802671 
L 602.348712 330.043326 
L 604.19948 325.662379 
L 606.050247 320.733489 
L 607.901015 315.242143 
L 610.677166 306.119499 
L 613.453317 296.087216 
L 617.154852 281.478628 
L 620.856387 265.798021 
L 625.483306 245.242949 
L 638.438679 186.882822 
L 642.140214 171.306237 
L 644.916365 160.334451 
L 647.692517 150.156224 
L 650.468668 140.937676 
L 652.319435 135.423151 
L 654.170203 130.464565 
L 656.02097 126.146456 
L 657.871738 122.516212 
L 659.722506 119.630872 
L 660.647889 118.471857 
L 661.573273 117.522422 
L 662.498657 116.793146 
L 663.424041 116.26406 
L 664.349424 115.972462 
L 665.274808 115.892955 
L 666.200192 116.058319 
L 667.125576 116.439429 
L 668.050959 117.066005 
L 668.976343 117.933893 
L 669.901727 119.038435 
L 670.827111 120.374611 
L 671.752494 121.964619 
L 673.603262 125.865433 
L 675.45403 130.71581 
L 677.304797 136.510685 
L 679.155565 143.204671 
L 681.006332 150.726279 
L 682.8571 158.993128 
L 685.633251 172.652919 
L 688.409402 187.579014 
L 692.110937 208.734876 
L 699.514007 251.636985 
L 702.290159 266.586819 
L 705.06631 280.295131 
L 706.917078 288.544309 
L 708.767845 295.984023 
L 710.618613 302.521682 
L 712.46938 308.123377 
L 714.320148 312.74055 
L 715.245532 314.652437 
L 716.170915 316.28731 
L 717.096299 317.667445 
L 718.021683 318.785415 
L 718.947067 319.636706 
L 719.87245 320.219207 
L 720.797834 320.560232 
L 721.723218 320.628847 
L 722.648602 320.455952 
L 723.573985 320.040974 
L 724.499369 319.357291 
L 725.424753 318.439261 
L 726.350137 317.316494 
L 727.27552 315.959552 
L 729.126288 312.588042 
L 730.977056 308.453436 
L 732.827823 303.628132 
L 734.678591 298.176075 
L 737.454742 289.033986 
L 740.230893 279.053244 
L 744.857812 261.31542 
L 750.410115 239.941346 
L 753.186266 229.836095 
L 755.962417 220.418993 
L 758.738569 211.857434 
L 760.589336 206.722851 
L 762.440104 202.063305 
L 764.290871 197.89953 
L 766.141639 194.276875 
L 767.992406 191.18417 
L 769.843174 188.677179 
L 771.693941 186.706929 
L 773.544709 185.34973 
L 774.470093 184.877793 
L 775.395476 184.543669 
L 776.32086 184.346367 
L 777.246244 184.284278 
L 778.171628 184.382762 
L 779.097011 184.606965 
L 780.022395 184.982307 
L 780.947779 185.501536 
L 782.798547 186.945103 
L 784.649314 188.916589 
L 786.500082 191.437538 
L 788.350849 194.468047 
L 790.201617 198.045426 
L 792.052384 202.159091 
L 793.903152 206.798523 
L 795.753919 211.949238 
L 797.604687 217.639723 
L 799.455454 223.859535 
L 801.306222 230.644833 
L 804.082373 241.905048 
L 806.858524 254.448376 
L 809.634676 268.305014 
L 812.410827 283.439198 
L 815.186978 299.849706 
L 817.96313 317.505854 
L 821.664665 342.741759 
L 825.3662 369.492134 
L 838.321573 465.1455 
L 841.097724 483.647723 
L 843.873875 500.574285 
L 845.724643 510.807823 
L 847.57541 520.093166 
L 849.426178 528.344354 
L 851.276945 535.500448 
L 853.127713 541.503478 
L 854.97848 546.317818 
L 855.903864 548.273199 
L 856.829248 549.925159 
L 857.754632 551.273867 
L 858.680015 552.321148 
L 859.605399 553.072897 
L 860.530783 553.530061 
L 861.456167 553.697701 
L 862.38155 553.581465 
L 863.306934 553.190167 
L 864.232318 552.53241 
L 865.157702 551.616537 
L 866.083086 550.450598 
L 867.008469 549.047818 
L 868.859237 545.578157 
L 870.710004 541.310192 
L 872.560772 536.356252 
L 874.411539 530.837745 
L 877.187691 521.774006 
L 882.739993 502.39974 
L 886.441528 489.864995 
L 889.21768 481.257578 
L 891.068447 476.052151 
L 892.919215 471.348379 
L 894.769982 467.190358 
L 896.62075 463.604631 
L 898.471517 460.601314 
L 900.322285 458.17704 
L 902.173052 456.312741 
L 904.02382 454.971996 
L 905.874588 454.102978 
L 907.725355 453.650587 
L 909.576123 453.541548 
L 911.42689 453.704047 
L 914.203041 454.275761 
L 919.755344 455.613268 
L 921.606112 455.843373 
L 923.456879 455.861444 
L 925.307647 455.620456 
L 927.158414 455.082446 
L 929.009182 454.227603 
L 930.859949 453.046931 
L 932.710717 451.548773 
L 934.561484 449.755132 
L 936.412252 447.697078 
L 939.188403 444.224815 
L 947.516857 433.272603 
L 949.367625 431.27894 
L 951.218392 429.647357 
L 953.06916 428.47241 
L 953.994543 428.083401 
L 954.919927 427.841868 
L 955.845311 427.759636 
L 956.770695 427.842731 
L 957.696078 428.103343 
L 958.621462 428.550471 
L 959.546846 429.190432 
L 960.47223 430.030058 
L 961.397614 431.079332 
L 962.322997 432.339815 
L 963.248381 433.817103 
L 965.099149 437.441769 
L 966.949916 441.968578 
L 968.800684 447.401231 
L 970.651451 453.727454 
L 972.502219 460.918194 
L 974.352986 468.926492 
L 977.129138 482.322662 
L 979.905289 497.129903 
L 983.606824 518.434493 
L 992.860662 573.020742 
L 995.636813 587.792783 
L 997.48758 596.791472 
L 999.338348 604.959755 
L 1001.189115 612.185228 
L 1003.039883 618.368975 
L 1004.890651 623.422107 
L 1005.816034 625.503311 
L 1006.741418 627.276813 
L 1007.666802 628.737337 
L 1008.592186 629.87696 
L 1009.517569 630.693817 
L 1010.442953 631.185536 
L 1011.368337 631.352045 
L 1012.293721 631.189648 
L 1013.219104 630.702615 
L 1014.144488 629.888016 
L 1015.069872 628.750675 
L 1015.995256 627.296271 
L 1016.92064 625.525623 
L 1017.846023 623.446483 
L 1019.696791 618.386652 
L 1021.547558 612.183179 
L 1023.398326 604.909435 
L 1025.249093 596.649795 
L 1027.099861 587.500358 
L 1029.876012 572.335646 
L 1032.652164 555.778775 
L 1036.353699 532.21053 
L 1047.458304 460.111114 
L 1050.234455 443.697428 
L 1053.010606 428.558837 
L 1055.786758 414.945489 
L 1057.637525 406.821333 
L 1059.488293 399.516255 
L 1061.33906 393.065059 
L 1063.189828 387.498534 
L 1065.040595 382.828134 
L 1066.891363 379.064991 
L 1067.816747 377.521606 
L 1068.74213 376.200151 
L 1069.667514 375.099632 
L 1070.592898 374.217936 
L 1071.518282 373.549311 
L 1072.443666 373.090554 
L 1073.369049 372.837869 
L 1074.294433 372.784271 
L 1075.219817 372.922952 
L 1076.145201 373.250061 
L 1077.070584 373.755999 
L 1077.995968 374.431987 
L 1078.921352 375.272745 
L 1080.772119 377.410206 
L 1082.622887 380.095929 
L 1084.473655 383.25306 
L 1086.324422 386.798324 
L 1089.100573 392.664004 
L 1093.727492 403.202525 
L 1098.354411 413.628042 
L 1101.130562 419.389446 
L 1103.906714 424.566121 
L 1105.757481 427.628366 
L 1107.608249 430.354806 
L 1109.459016 432.731613 
L 1111.309784 434.75995 
L 1113.160551 436.446211 
L 1115.011319 437.808028 
L 1116.862086 438.868475 
L 1118.712854 439.659855 
L 1120.563621 440.213273 
L 1122.414389 440.569418 
L 1123.339773 440.682773 
L 1123.339773 440.682773 
" style="fill:none;stroke:#1f77b4;stroke-dasharray:5.55,2.4;stroke-dashoffset:0;stroke-width:1.5;"/>
   </g>
   <g id="line2d_13">
    <path clip-path="url(#p52aed273a3)" d="M 208.135227 331.513881 
L 211.836762 336.500893 
L 215.538297 341.039634 
L 218.314449 343.953393 
L 220.165216 345.690442 
L 222.015984 347.203356 
L 224.792135 348.940405 
L 226.642903 349.780912 
L 228.49367 350.341251 
L 230.344438 350.677454 
L 232.195205 350.733488 
L 234.045973 350.509352 
L 236.822124 349.724879 
L 239.598275 348.4361 
L 243.29981 346.082679 
L 246.075962 343.953393 
L 248.852113 341.656006 
L 259.031334 333.138862 
L 261.807486 331.177678 
L 265.509021 329.048392 
L 267.359788 328.207885 
L 270.13594 327.255309 
L 272.912091 326.638937 
L 275.688242 326.358768 
L 278.464394 326.414802 
L 282.165929 326.919106 
L 285.867464 327.70358 
L 290.494383 328.936324 
L 294.195918 329.944934 
L 297.897453 330.785441 
L 303.449755 331.401813 
L 307.15129 331.345779 
L 309.002058 331.177678 
L 310.852825 330.897509 
L 315.479744 329.944934 
L 325.658966 327.591512 
L 327.509733 327.367377 
L 330.285885 327.367377 
L 332.136652 327.591512 
L 334.912803 328.375986 
L 336.763571 329.216494 
L 338.614338 330.281137 
L 340.465106 331.681983 
L 342.315873 333.362998 
L 344.166641 335.324182 
L 346.942792 338.854314 
L 349.718944 343.056852 
L 352.495095 347.875762 
L 355.271246 353.142943 
L 359.898165 362.892831 
L 371.00277 386.970571 
L 373.778922 392.327406 
L 376.555073 397.13511 
L 378.40584 399.976025 
L 380.256608 402.491945 
L 382.107375 404.649247 
L 383.958143 406.436727 
L 385.808911 407.843176 
L 387.659678 408.846182 
L 389.510446 409.451347 
L 391.361213 409.658673 
L 393.211981 409.468158 
L 395.062748 408.896612 
L 396.913516 407.960847 
L 398.764283 406.666466 
L 400.615051 405.047088 
L 402.465818 403.125127 
L 404.316586 400.928601 
L 407.092737 397.174333 
L 409.868888 392.971795 
L 413.570424 386.830487 
L 418.197342 378.638339 
L 425.600412 365.414354 
L 430.227331 357.513582 
L 433.928866 351.630029 
L 436.705018 347.539559 
L 441.331937 341.263769 
L 445.033472 336.725028 
L 447.809623 333.531099 
L 452.436542 328.600121 
L 460.764996 320.139012 
L 463.541147 317.33732 
L 471.869601 308.14777 
L 479.272671 299.014254 
L 492.228044 281.923934 
L 495.929579 277.329159 
L 499.631114 273.182655 
L 502.407265 270.436997 
L 505.183416 268.027542 
L 507.959568 266.122391 
L 510.735719 264.721545 
L 512.586487 264.105173 
L 515.362638 263.712936 
L 517.213405 263.76897 
L 518.138789 263.881038 
L 520.91494 264.665511 
L 523.691092 266.122391 
L 525.541859 267.411169 
L 527.392627 268.924083 
L 530.168778 271.669741 
L 533.870313 276.040381 
L 538.497232 282.372204 
L 549.601837 298.341848 
L 552.377989 301.87198 
L 555.15414 305.009875 
L 557.930291 307.587432 
L 559.781059 309.044312 
L 561.631826 310.164988 
L 563.482594 311.06153 
L 565.333361 311.565834 
L 567.184129 311.846004 
L 568.109513 311.846004 
L 569.96028 311.565834 
L 571.811048 311.005496 
L 573.661815 310.108955 
L 575.512583 308.87621 
L 577.36335 307.363296 
L 579.214118 305.458146 
L 581.064885 303.32886 
L 582.915653 300.863371 
L 584.76642 298.173747 
L 586.617188 295.14792 
L 588.467955 291.953991 
L 591.244107 286.630776 
L 594.945642 278.786039 
L 599.572561 267.915474 
L 604.19948 256.148368 
L 608.826398 243.820923 
L 619.00562 216.364342 
L 622.707155 207.006691 
L 625.483306 200.450732 
L 628.259457 194.455111 
L 630.110225 190.868945 
L 632.886376 186.050035 
L 634.737144 183.360411 
L 636.587911 181.063024 
L 637.513295 180.054415 
L 639.364063 178.429433 
L 641.21483 177.308756 
L 643.065598 176.63635 
L 643.990981 176.524283 
L 644.916365 176.524283 
L 645.841749 176.63635 
L 647.692517 177.252723 
L 649.543284 178.429433 
L 651.394052 180.110448 
L 653.244819 182.239734 
L 655.095587 184.817291 
L 656.946354 187.843118 
L 658.797122 191.317216 
L 661.573273 197.088702 
L 665.274808 205.82998 
L 668.976343 215.243665 
L 677.304797 236.648592 
L 680.080948 243.148517 
L 681.931716 247.182954 
L 684.707867 252.67427 
L 686.558635 255.924232 
L 688.409402 258.725924 
L 690.26017 261.191413 
L 692.110937 263.208631 
L 693.036321 264.105173 
L 694.887089 265.506019 
L 695.812472 266.066357 
L 697.66324 266.794797 
L 698.588624 267.074966 
L 699.514007 267.187034 
L 701.364775 267.131 
L 703.215543 266.738763 
L 705.06631 265.95429 
L 706.917078 264.833613 
L 708.767845 263.432767 
L 711.543996 260.799176 
L 713.394764 258.725924 
L 717.096299 254.075116 
L 722.648602 246.174344 
L 728.200904 237.93737 
L 731.902439 232.670189 
L 736.529358 226.674569 
L 739.305509 223.48064 
L 742.081661 220.734982 
L 743.932428 219.11 
L 746.70858 217.148816 
L 748.559347 216.084173 
L 750.410115 215.299699 
L 752.260882 214.739361 
L 754.11165 214.459192 
L 755.962417 214.403158 
L 757.813185 214.683327 
L 759.663952 215.187632 
L 761.51472 216.028139 
L 763.365487 217.20485 
L 765.216255 218.66173 
L 767.067022 220.398779 
L 769.843174 223.760809 
L 771.693941 226.394399 
L 773.544709 229.420227 
L 776.32086 234.687407 
L 778.171628 238.66581 
L 780.947779 245.445905 
L 783.72393 253.12254 
L 786.500082 261.695718 
L 789.276233 271.22147 
L 792.052384 281.587731 
L 794.828535 292.738465 
L 799.455454 312.798579 
L 805.007757 338.518111 
L 813.336211 377.349561 
L 817.037746 393.515324 
L 819.813897 404.822952 
L 822.590048 415.239643 
L 825.3662 424.630914 
L 827.216967 430.273522 
L 829.067735 435.395015 
L 830.918502 439.978583 
L 832.76927 444.029829 
L 834.620037 447.537548 
L 836.470805 450.524151 
L 838.321573 452.995244 
L 840.17234 454.984445 
L 842.023108 456.514169 
L 843.873875 457.623639 
L 845.724643 458.352079 
L 847.57541 458.744316 
L 849.426178 458.839573 
L 851.276945 458.693885 
L 853.127713 458.352079 
L 855.903864 457.573208 
L 860.530783 455.931417 
L 865.157702 454.373676 
L 867.933853 453.662046 
L 870.710004 453.174552 
L 873.486156 452.93921 
L 876.262307 452.944813 
L 879.038458 453.146535 
L 883.665377 453.757304 
L 889.21768 454.491347 
L 891.993831 454.665052 
L 894.769982 454.603415 
L 897.546134 454.261608 
L 900.322285 453.600409 
L 903.098436 452.614214 
L 905.874588 451.325435 
L 908.650739 449.773298 
L 913.277658 446.820315 
L 917.904576 443.839314 
L 920.680728 442.287177 
L 922.531495 441.441066 
L 924.382263 440.791074 
L 926.23303 440.382027 
L 928.083798 440.258752 
L 929.934565 440.449267 
L 931.785333 440.998399 
L 933.636101 441.934164 
L 935.486868 443.273373 
L 937.337636 445.049645 
L 939.188403 447.262982 
L 941.039171 449.930193 
L 942.889938 453.045674 
L 944.740706 456.603823 
L 946.591473 460.587829 
L 948.442241 464.975278 
L 951.218392 472.248471 
L 953.994543 480.222086 
L 957.696078 491.675403 
L 969.726067 529.784016 
L 972.502219 537.494273 
L 975.27837 544.375228 
L 977.129138 548.415268 
L 978.979905 551.973417 
L 980.830673 555.004847 
L 982.68144 557.487146 
L 984.532208 559.3979 
L 985.457591 560.137547 
L 986.382975 560.720299 
L 987.308359 561.157363 
L 988.233743 561.448739 
L 989.159127 561.58322 
L 990.08451 561.572013 
L 991.009894 561.409515 
L 991.935278 561.101329 
L 992.860662 560.647455 
L 993.786045 560.053496 
L 995.636813 558.434118 
L 997.48758 556.271212 
L 999.338348 553.592795 
L 1001.189115 550.426883 
L 1003.039883 546.8127 
L 1004.890651 542.78947 
L 1007.666802 536.071013 
L 1010.442953 528.68015 
L 1014.144488 518.044927 
L 1019.696791 501.217965 
L 1025.249093 484.503071 
L 1028.950629 474.007933 
L 1031.72678 466.695517 
L 1034.502931 459.97706 
L 1037.279082 453.936612 
L 1039.12985 450.32243 
L 1040.980617 447.04445 
L 1042.831385 444.119484 
L 1044.682153 441.541927 
L 1046.53292 439.317384 
L 1048.383688 437.434647 
L 1050.234455 435.876906 
L 1052.085223 434.638558 
L 1053.93599 433.69719 
L 1055.786758 433.030387 
L 1057.637525 432.615736 
L 1059.488293 432.419618 
L 1061.33906 432.414015 
L 1064.115212 432.705391 
L 1066.891363 433.260126 
L 1071.518282 434.515284 
L 1078.921352 436.566122 
L 1082.622887 437.344992 
L 1086.324422 437.899727 
L 1090.025957 438.241534 
L 1094.652876 438.448859 
L 1095.57826 438.465669 
L 1095.57826 438.465669 
" style="fill:none;stroke:#ff7f0e;stroke-linecap:square;stroke-width:1.5;"/>
   </g>
   <g id="line2d_14">
    <path clip-path="url(#p52aed273a3)" d="M 208.135227 551.502732 
L 1123.339773 551.502732 
L 1123.339773 551.502732 
" style="fill:none;stroke:#2ca02c;stroke-linecap:square;stroke-width:1.5;"/>
   </g>
   <g id="patch_3">
    <path d="M 162.375 657.125 
L 162.375 90.12 
" style="fill:none;stroke:#000000;stroke-linecap:square;stroke-linejoin:miter;stroke-width:0.8;"/>
   </g>
   <g id="patch_4">
    <path d="M 1169.1 657.125 
L 1169.1 90.12 
" style="fill:none;stroke:#000000;stroke-linecap:square;stroke-linejoin:miter;stroke-width:0.8;"/>
   </g>
   <g id="patch_5">
    <path d="M 162.375 657.125 
L 1169.1 657.125 
" style="fill:none;stroke:#000000;stroke-linecap:square;stroke-linejoin:miter;stroke-width:0.8;"/>
   </g>
   <g id="patch_6">
    <path d="M 162.375 90.12 
L 1169.1 90.12 
" style="fill:none;stroke:#000000;stroke-linecap:square;stroke-linejoin:miter;stroke-width:0.8;"/>
   </g>
   <g id="text_14">
    <!-- mu = 0.9, ph=30  -->
    <defs>
     <path d="M 10.59375 45.40625 
L 73.1875 45.40625 
L 73.1875 37.203125 
L 10.59375 37.203125 
z
M 10.59375 25.484375 
L 73.1875 25.484375 
L 73.1875 17.1875 
L 10.59375 17.1875 
z
" id="DejaVuSans-3d"/>
     <path d="M 10.6875 12.40625 
L 21 12.40625 
L 21 0 
L 10.6875 0 
z
" id="DejaVuSans-2e"/>
     <path d="M 10.984375 1.515625 
L 10.984375 10.5 
Q 14.703125 8.734375 18.5 7.8125 
Q 22.3125 6.890625 25.984375 6.890625 
Q 35.75 6.890625 40.890625 13.453125 
Q 46.046875 20.015625 46.78125 33.40625 
Q 43.953125 29.203125 39.59375 26.953125 
Q 35.25 24.703125 29.984375 24.703125 
Q 19.046875 24.703125 12.671875 31.3125 
Q 6.296875 37.9375 6.296875 49.421875 
Q 6.296875 60.640625 12.9375 67.421875 
Q 19.578125 74.21875 30.609375 74.21875 
Q 43.265625 74.21875 49.921875 64.515625 
Q 56.59375 54.828125 56.59375 36.375 
Q 56.59375 19.140625 48.40625 8.859375 
Q 40.234375 -1.421875 26.421875 -1.421875 
Q 22.703125 -1.421875 18.890625 -0.6875 
Q 15.09375 0.046875 10.984375 1.515625 
z
M 30.609375 32.421875 
Q 37.25 32.421875 41.125 36.953125 
Q 45.015625 41.5 45.015625 49.421875 
Q 45.015625 57.28125 41.125 61.84375 
Q 37.25 66.40625 30.609375 66.40625 
Q 23.96875 66.40625 20.09375 61.84375 
Q 16.21875 57.28125 16.21875 49.421875 
Q 16.21875 41.5 20.09375 36.953125 
Q 23.96875 32.421875 30.609375 32.421875 
z
" id="DejaVuSans-39"/>
     <path d="M 11.71875 12.40625 
L 22.015625 12.40625 
L 22.015625 4 
L 14.015625 -11.625 
L 7.71875 -11.625 
L 11.71875 4 
z
" id="DejaVuSans-2c"/>
     <path d="M 18.109375 8.203125 
L 18.109375 -20.796875 
L 9.078125 -20.796875 
L 9.078125 54.6875 
L 18.109375 54.6875 
L 18.109375 46.390625 
Q 20.953125 51.265625 25.265625 53.625 
Q 29.59375 56 35.59375 56 
Q 45.5625 56 51.78125 48.09375 
Q 58.015625 40.1875 58.015625 27.296875 
Q 58.015625 14.40625 51.78125 6.484375 
Q 45.5625 -1.421875 35.59375 -1.421875 
Q 29.59375 -1.421875 25.265625 0.953125 
Q 20.953125 3.328125 18.109375 8.203125 
z
M 48.6875 27.296875 
Q 48.6875 37.203125 44.609375 42.84375 
Q 40.53125 48.484375 33.40625 48.484375 
Q 26.265625 48.484375 22.1875 42.84375 
Q 18.109375 37.203125 18.109375 27.296875 
Q 18.109375 17.390625 22.1875 11.75 
Q 26.265625 6.109375 33.40625 6.109375 
Q 40.53125 6.109375 44.609375 11.75 
Q 48.6875 17.390625 48.6875 27.296875 
z
" id="DejaVuSans-70"/>
     <path d="M 54.890625 33.015625 
L 54.890625 0 
L 45.90625 0 
L 45.90625 32.71875 
Q 45.90625 40.484375 42.875 44.328125 
Q 39.84375 48.1875 33.796875 48.1875 
Q 26.515625 48.1875 22.3125 43.546875 
Q 18.109375 38.921875 18.109375 30.90625 
L 18.109375 0 
L 9.078125 0 
L 9.078125 75.984375 
L 18.109375 75.984375 
L 18.109375 46.1875 
Q 21.34375 51.125 25.703125 53.5625 
Q 30.078125 56 35.796875 56 
Q 45.21875 56 50.046875 50.171875 
Q 54.890625 44.34375 54.890625 33.015625 
z
" id="DejaVuSans-68"/>
     <path d="M 40.578125 39.3125 
Q 47.65625 37.796875 51.625 33 
Q 55.609375 28.21875 55.609375 21.1875 
Q 55.609375 10.40625 48.1875 4.484375 
Q 40.765625 -1.421875 27.09375 -1.421875 
Q 22.515625 -1.421875 17.65625 -0.515625 
Q 12.796875 0.390625 7.625 2.203125 
L 7.625 11.71875 
Q 11.71875 9.328125 16.59375 8.109375 
Q 21.484375 6.890625 26.8125 6.890625 
Q 36.078125 6.890625 40.9375 10.546875 
Q 45.796875 14.203125 45.796875 21.1875 
Q 45.796875 27.640625 41.28125 31.265625 
Q 36.765625 34.90625 28.71875 34.90625 
L 20.21875 34.90625 
L 20.21875 43.015625 
L 29.109375 43.015625 
Q 36.375 43.015625 40.234375 45.921875 
Q 44.09375 48.828125 44.09375 54.296875 
Q 44.09375 59.90625 40.109375 62.90625 
Q 36.140625 65.921875 28.71875 65.921875 
Q 24.65625 65.921875 20.015625 65.03125 
Q 15.375 64.15625 9.8125 62.3125 
L 9.8125 71.09375 
Q 15.4375 72.65625 20.34375 73.4375 
Q 25.25 74.21875 29.59375 74.21875 
Q 40.828125 74.21875 47.359375 69.109375 
Q 53.90625 64.015625 53.90625 55.328125 
Q 53.90625 49.265625 50.4375 45.09375 
Q 46.96875 40.921875 40.578125 39.3125 
z
" id="DejaVuSans-33"/>
    </defs>
    <g transform="translate(611.712188 84.12)scale(0.12 -0.12)">
     <use xlink:href="#DejaVuSans-6d"/>
     <use x="97.412109" xlink:href="#DejaVuSans-75"/>
     <use x="160.791016" xlink:href="#DejaVuSans-20"/>
     <use x="192.578125" xlink:href="#DejaVuSans-3d"/>
     <use x="276.367188" xlink:href="#DejaVuSans-20"/>
     <use x="308.154297" xlink:href="#DejaVuSans-30"/>
     <use x="371.777344" xlink:href="#DejaVuSans-2e"/>
     <use x="403.564453" xlink:href="#DejaVuSans-39"/>
     <use x="467.1875" xlink:href="#DejaVuSans-2c"/>
     <use x="498.974609" xlink:href="#DejaVuSans-20"/>
     <use x="530.761719" xlink:href="#DejaVuSans-70"/>
     <use x="594.238281" xlink:href="#DejaVuSans-68"/>
     <use x="657.617188" xlink:href="#DejaVuSans-3d"/>
     <use x="741.40625" xlink:href="#DejaVuSans-33"/>
     <use x="805.029297" xlink:href="#DejaVuSans-30"/>
     <use x="868.652344" xlink:href="#DejaVuSans-20"/>
    </g>
   </g>
   <g id="legend_1">
    <g id="patch_7">
     <path d="M 1008.360938 142.154375 
L 1162.1 142.154375 
Q 1164.1 142.154375 1164.1 140.154375 
L 1164.1 97.12 
Q 1164.1 95.12 1162.1 95.12 
L 1008.360938 95.12 
Q 1006.360938 95.12 1006.360938 97.12 
L 1006.360938 140.154375 
Q 1006.360938 142.154375 1008.360938 142.154375 
z
" style="fill:#ffffff;opacity:0.8;stroke:#cccccc;stroke-linejoin:miter;"/>
    </g>
    <g id="line2d_15">
     <path d="M 1010.360938 103.218438 
L 1030.360938 103.218438 
" style="fill:none;stroke:#1f77b4;stroke-dasharray:5.55,2.4;stroke-dashoffset:0;stroke-width:1.5;"/>
    </g>
    <g id="line2d_16"/>
    <g id="text_15">
     <!-- Prediction -->
     <defs>
      <path d="M 19.671875 64.796875 
L 19.671875 37.40625 
L 32.078125 37.40625 
Q 38.96875 37.40625 42.71875 40.96875 
Q 46.484375 44.53125 46.484375 51.125 
Q 46.484375 57.671875 42.71875 61.234375 
Q 38.96875 64.796875 32.078125 64.796875 
z
M 9.8125 72.90625 
L 32.078125 72.90625 
Q 44.34375 72.90625 50.609375 67.359375 
Q 56.890625 61.8125 56.890625 51.125 
Q 56.890625 40.328125 50.609375 34.8125 
Q 44.34375 29.296875 32.078125 29.296875 
L 19.671875 29.296875 
L 19.671875 0 
L 9.8125 0 
z
" id="DejaVuSans-50"/>
      <path d="M 41.109375 46.296875 
Q 39.59375 47.171875 37.8125 47.578125 
Q 36.03125 48 33.890625 48 
Q 26.265625 48 22.1875 43.046875 
Q 18.109375 38.09375 18.109375 28.8125 
L 18.109375 0 
L 9.078125 0 
L 9.078125 54.6875 
L 18.109375 54.6875 
L 18.109375 46.1875 
Q 20.953125 51.171875 25.484375 53.578125 
Q 30.03125 56 36.53125 56 
Q 37.453125 56 38.578125 55.875 
Q 39.703125 55.765625 41.0625 55.515625 
z
" id="DejaVuSans-72"/>
     </defs>
     <g transform="translate(1038.360938 106.718438)scale(0.1 -0.1)">
      <use xlink:href="#DejaVuSans-50"/>
      <use x="60.287109" xlink:href="#DejaVuSans-72"/>
      <use x="101.369141" xlink:href="#DejaVuSans-65"/>
      <use x="162.892578" xlink:href="#DejaVuSans-64"/>
      <use x="226.369141" xlink:href="#DejaVuSans-69"/>
      <use x="254.152344" xlink:href="#DejaVuSans-63"/>
      <use x="309.132812" xlink:href="#DejaVuSans-74"/>
      <use x="348.341797" xlink:href="#DejaVuSans-69"/>
      <use x="376.125" xlink:href="#DejaVuSans-6f"/>
      <use x="437.306641" xlink:href="#DejaVuSans-6e"/>
     </g>
    </g>
    <g id="line2d_17">
     <path d="M 1010.360938 117.896563 
L 1030.360938 117.896563 
" style="fill:none;stroke:#ff7f0e;stroke-linecap:square;stroke-width:1.5;"/>
    </g>
    <g id="line2d_18"/>
    <g id="text_16">
     <!-- CGM data -->
     <defs>
      <path d="M 64.40625 67.28125 
L 64.40625 56.890625 
Q 59.421875 61.53125 53.78125 63.8125 
Q 48.140625 66.109375 41.796875 66.109375 
Q 29.296875 66.109375 22.65625 58.46875 
Q 16.015625 50.828125 16.015625 36.375 
Q 16.015625 21.96875 22.65625 14.328125 
Q 29.296875 6.6875 41.796875 6.6875 
Q 48.140625 6.6875 53.78125 8.984375 
Q 59.421875 11.28125 64.40625 15.921875 
L 64.40625 5.609375 
Q 59.234375 2.09375 53.4375 0.328125 
Q 47.65625 -1.421875 41.21875 -1.421875 
Q 24.65625 -1.421875 15.125 8.703125 
Q 5.609375 18.84375 5.609375 36.375 
Q 5.609375 53.953125 15.125 64.078125 
Q 24.65625 74.21875 41.21875 74.21875 
Q 47.75 74.21875 53.53125 72.484375 
Q 59.328125 70.75 64.40625 67.28125 
z
" id="DejaVuSans-43"/>
      <path d="M 59.515625 10.40625 
L 59.515625 29.984375 
L 43.40625 29.984375 
L 43.40625 38.09375 
L 69.28125 38.09375 
L 69.28125 6.78125 
Q 63.578125 2.734375 56.6875 0.65625 
Q 49.8125 -1.421875 42 -1.421875 
Q 24.90625 -1.421875 15.25 8.5625 
Q 5.609375 18.5625 5.609375 36.375 
Q 5.609375 54.25 15.25 64.234375 
Q 24.90625 74.21875 42 74.21875 
Q 49.125 74.21875 55.546875 72.453125 
Q 61.96875 70.703125 67.390625 67.28125 
L 67.390625 56.78125 
Q 61.921875 61.421875 55.765625 63.765625 
Q 49.609375 66.109375 42.828125 66.109375 
Q 29.4375 66.109375 22.71875 58.640625 
Q 16.015625 51.171875 16.015625 36.375 
Q 16.015625 21.625 22.71875 14.15625 
Q 29.4375 6.6875 42.828125 6.6875 
Q 48.046875 6.6875 52.140625 7.59375 
Q 56.25 8.5 59.515625 10.40625 
z
" id="DejaVuSans-47"/>
      <path d="M 9.8125 72.90625 
L 24.515625 72.90625 
L 43.109375 23.296875 
L 61.8125 72.90625 
L 76.515625 72.90625 
L 76.515625 0 
L 66.890625 0 
L 66.890625 64.015625 
L 48.09375 14.015625 
L 38.1875 14.015625 
L 19.390625 64.015625 
L 19.390625 0 
L 9.8125 0 
z
" id="DejaVuSans-4d"/>
      <path d="M 34.28125 27.484375 
Q 23.390625 27.484375 19.1875 25 
Q 14.984375 22.515625 14.984375 16.5 
Q 14.984375 11.71875 18.140625 8.90625 
Q 21.296875 6.109375 26.703125 6.109375 
Q 34.1875 6.109375 38.703125 11.40625 
Q 43.21875 16.703125 43.21875 25.484375 
L 43.21875 27.484375 
z
M 52.203125 31.203125 
L 52.203125 0 
L 43.21875 0 
L 43.21875 8.296875 
Q 40.140625 3.328125 35.546875 0.953125 
Q 30.953125 -1.421875 24.3125 -1.421875 
Q 15.921875 -1.421875 10.953125 3.296875 
Q 6 8.015625 6 15.921875 
Q 6 25.140625 12.171875 29.828125 
Q 18.359375 34.515625 30.609375 34.515625 
L 43.21875 34.515625 
L 43.21875 35.40625 
Q 43.21875 41.609375 39.140625 45 
Q 35.0625 48.390625 27.6875 48.390625 
Q 23 48.390625 18.546875 47.265625 
Q 14.109375 46.140625 10.015625 43.890625 
L 10.015625 52.203125 
Q 14.9375 54.109375 19.578125 55.046875 
Q 24.21875 56 28.609375 56 
Q 40.484375 56 46.34375 49.84375 
Q 52.203125 43.703125 52.203125 31.203125 
z
" id="DejaVuSans-61"/>
     </defs>
     <g transform="translate(1038.360938 121.396563)scale(0.1 -0.1)">
      <use xlink:href="#DejaVuSans-43"/>
      <use x="69.824219" xlink:href="#DejaVuSans-47"/>
      <use x="147.314453" xlink:href="#DejaVuSans-4d"/>
      <use x="233.59375" xlink:href="#DejaVuSans-20"/>
      <use x="265.380859" xlink:href="#DejaVuSans-64"/>
      <use x="328.857422" xlink:href="#DejaVuSans-61"/>
      <use x="390.136719" xlink:href="#DejaVuSans-74"/>
      <use x="429.345703" xlink:href="#DejaVuSans-61"/>
     </g>
    </g>
    <g id="line2d_19">
     <path d="M 1010.360938 132.574688 
L 1030.360938 132.574688 
" style="fill:none;stroke:#2ca02c;stroke-linecap:square;stroke-width:1.5;"/>
    </g>
    <g id="line2d_20"/>
    <g id="text_17">
     <!-- Hypoglycemia threshold -->
     <defs>
      <path d="M 9.8125 72.90625 
L 19.671875 72.90625 
L 19.671875 43.015625 
L 55.515625 43.015625 
L 55.515625 72.90625 
L 65.375 72.90625 
L 65.375 0 
L 55.515625 0 
L 55.515625 34.71875 
L 19.671875 34.71875 
L 19.671875 0 
L 9.8125 0 
z
" id="DejaVuSans-48"/>
      <path d="M 32.171875 -5.078125 
Q 28.375 -14.84375 24.75 -17.8125 
Q 21.140625 -20.796875 15.09375 -20.796875 
L 7.90625 -20.796875 
L 7.90625 -13.28125 
L 13.1875 -13.28125 
Q 16.890625 -13.28125 18.9375 -11.515625 
Q 21 -9.765625 23.484375 -3.21875 
L 25.09375 0.875 
L 2.984375 54.6875 
L 12.5 54.6875 
L 29.59375 11.921875 
L 46.6875 54.6875 
L 56.203125 54.6875 
z
" id="DejaVuSans-79"/>
     </defs>
     <g transform="translate(1038.360938 136.074688)scale(0.1 -0.1)">
      <use xlink:href="#DejaVuSans-48"/>
      <use x="75.195312" xlink:href="#DejaVuSans-79"/>
      <use x="134.375" xlink:href="#DejaVuSans-70"/>
      <use x="197.851562" xlink:href="#DejaVuSans-6f"/>
      <use x="259.033203" xlink:href="#DejaVuSans-67"/>
      <use x="322.509766" xlink:href="#DejaVuSans-6c"/>
      <use x="350.292969" xlink:href="#DejaVuSans-79"/>
      <use x="409.472656" xlink:href="#DejaVuSans-63"/>
      <use x="464.453125" xlink:href="#DejaVuSans-65"/>
      <use x="525.976562" xlink:href="#DejaVuSans-6d"/>
      <use x="623.388672" xlink:href="#DejaVuSans-69"/>
      <use x="651.171875" xlink:href="#DejaVuSans-61"/>
      <use x="712.451172" xlink:href="#DejaVuSans-20"/>
      <use x="744.238281" xlink:href="#DejaVuSans-74"/>
      <use x="783.447266" xlink:href="#DejaVuSans-68"/>
      <use x="846.826172" xlink:href="#DejaVuSans-72"/>
      <use x="887.908203" xlink:href="#DejaVuSans-65"/>
      <use x="949.431641" xlink:href="#DejaVuSans-73"/>
      <use x="1001.53125" xlink:href="#DejaVuSans-68"/>
      <use x="1064.910156" xlink:href="#DejaVuSans-6f"/>
      <use x="1126.091797" xlink:href="#DejaVuSans-6c"/>
      <use x="1153.875" xlink:href="#DejaVuSans-64"/>
     </g>
    </g>
   </g>
  </g>
  <g id="text_18">
   <!-- Glucose prediction -->
   <defs>
    <path d="M 74.703125 5.421875 
Q 67.671875 2 60.109375 0.28125 
Q 52.546875 -1.421875 44.484375 -1.421875 
Q 26.265625 -1.421875 15.625 8.765625 
Q 4.984375 18.953125 4.984375 36.375 
Q 4.984375 54 15.8125 64.109375 
Q 26.65625 74.21875 45.515625 74.21875 
Q 52.78125 74.21875 59.4375 72.84375 
Q 66.109375 71.484375 72.015625 68.796875 
L 72.015625 53.71875 
Q 65.921875 57.171875 59.890625 58.875 
Q 53.859375 60.59375 47.796875 60.59375 
Q 36.578125 60.59375 30.5 54.3125 
Q 24.421875 48.046875 24.421875 36.375 
Q 24.421875 24.8125 30.28125 18.5 
Q 36.140625 12.203125 46.921875 12.203125 
Q 49.859375 12.203125 52.375 12.5625 
Q 54.890625 12.9375 56.890625 13.71875 
L 56.890625 27.875 
L 45.40625 27.875 
L 45.40625 40.484375 
L 74.703125 40.484375 
z
" id="DejaVuSans-Bold-47"/>
    <path d="M 8.40625 75.984375 
L 25.875 75.984375 
L 25.875 0 
L 8.40625 0 
z
" id="DejaVuSans-Bold-6c"/>
    <path d="M 7.8125 21.296875 
L 7.8125 54.6875 
L 25.390625 54.6875 
L 25.390625 49.21875 
Q 25.390625 44.78125 25.34375 38.0625 
Q 25.296875 31.34375 25.296875 29.109375 
Q 25.296875 22.515625 25.640625 19.609375 
Q 25.984375 16.703125 26.8125 15.375 
Q 27.875 13.671875 29.609375 12.734375 
Q 31.34375 11.8125 33.59375 11.8125 
Q 39.0625 11.8125 42.1875 16.015625 
Q 45.3125 20.21875 45.3125 27.6875 
L 45.3125 54.6875 
L 62.796875 54.6875 
L 62.796875 0 
L 45.3125 0 
L 45.3125 7.90625 
Q 41.359375 3.125 36.9375 0.84375 
Q 32.515625 -1.421875 27.203125 -1.421875 
Q 17.71875 -1.421875 12.765625 4.390625 
Q 7.8125 10.203125 7.8125 21.296875 
z
" id="DejaVuSans-Bold-75"/>
    <path d="M 52.59375 52.984375 
L 52.59375 38.71875 
Q 49.03125 41.15625 45.4375 42.328125 
Q 41.84375 43.5 37.984375 43.5 
Q 30.671875 43.5 26.59375 39.234375 
Q 22.515625 34.96875 22.515625 27.296875 
Q 22.515625 19.625 26.59375 15.34375 
Q 30.671875 11.078125 37.984375 11.078125 
Q 42.09375 11.078125 45.78125 12.296875 
Q 49.46875 13.53125 52.59375 15.921875 
L 52.59375 1.609375 
Q 48.484375 0.09375 44.265625 -0.65625 
Q 40.046875 -1.421875 35.796875 -1.421875 
Q 21 -1.421875 12.640625 6.171875 
Q 4.296875 13.765625 4.296875 27.296875 
Q 4.296875 40.828125 12.640625 48.40625 
Q 21 56 35.796875 56 
Q 40.09375 56 44.265625 55.25 
Q 48.4375 54.5 52.59375 52.984375 
z
" id="DejaVuSans-Bold-63"/>
    <path d="M 34.421875 43.5 
Q 28.609375 43.5 25.5625 39.328125 
Q 22.515625 35.15625 22.515625 27.296875 
Q 22.515625 19.4375 25.5625 15.25 
Q 28.609375 11.078125 34.421875 11.078125 
Q 40.140625 11.078125 43.15625 15.25 
Q 46.1875 19.4375 46.1875 27.296875 
Q 46.1875 35.15625 43.15625 39.328125 
Q 40.140625 43.5 34.421875 43.5 
z
M 34.421875 56 
Q 48.53125 56 56.46875 48.375 
Q 64.40625 40.765625 64.40625 27.296875 
Q 64.40625 13.8125 56.46875 6.1875 
Q 48.53125 -1.421875 34.421875 -1.421875 
Q 20.265625 -1.421875 12.28125 6.1875 
Q 4.296875 13.8125 4.296875 27.296875 
Q 4.296875 40.765625 12.28125 48.375 
Q 20.265625 56 34.421875 56 
z
" id="DejaVuSans-Bold-6f"/>
    <path d="M 51.125 52.984375 
L 51.125 39.703125 
Q 45.515625 42.046875 40.28125 43.21875 
Q 35.0625 44.390625 30.421875 44.390625 
Q 25.4375 44.390625 23.015625 43.140625 
Q 20.609375 41.890625 20.609375 39.3125 
Q 20.609375 37.203125 22.4375 36.078125 
Q 24.265625 34.96875 29 34.421875 
L 32.078125 33.984375 
Q 45.515625 32.28125 50.140625 28.375 
Q 54.78125 24.46875 54.78125 16.109375 
Q 54.78125 7.375 48.328125 2.96875 
Q 41.890625 -1.421875 29.109375 -1.421875 
Q 23.6875 -1.421875 17.890625 -0.5625 
Q 12.109375 0.296875 6 2 
L 6 15.28125 
Q 11.234375 12.75 16.71875 11.46875 
Q 22.21875 10.203125 27.875 10.203125 
Q 33.015625 10.203125 35.59375 11.609375 
Q 38.1875 13.03125 38.1875 15.828125 
Q 38.1875 18.171875 36.40625 19.3125 
Q 34.625 20.453125 29.296875 21.09375 
L 26.21875 21.484375 
Q 14.546875 22.953125 9.859375 26.90625 
Q 5.171875 30.859375 5.171875 38.921875 
Q 5.171875 47.609375 11.125 51.796875 
Q 17.09375 56 29.390625 56 
Q 34.234375 56 39.546875 55.265625 
Q 44.875 54.546875 51.125 52.984375 
z
" id="DejaVuSans-Bold-73"/>
    <path d="M 62.984375 27.484375 
L 62.984375 22.515625 
L 22.125 22.515625 
Q 22.75 16.359375 26.5625 13.28125 
Q 30.375 10.203125 37.203125 10.203125 
Q 42.71875 10.203125 48.5 11.84375 
Q 54.296875 13.484375 60.40625 16.796875 
L 60.40625 3.328125 
Q 54.203125 0.984375 48 -0.21875 
Q 41.796875 -1.421875 35.59375 -1.421875 
Q 20.75 -1.421875 12.515625 6.125 
Q 4.296875 13.671875 4.296875 27.296875 
Q 4.296875 40.671875 12.375 48.328125 
Q 20.453125 56 34.625 56 
Q 47.515625 56 55.25 48.234375 
Q 62.984375 40.484375 62.984375 27.484375 
z
M 45.015625 33.296875 
Q 45.015625 38.28125 42.109375 41.328125 
Q 39.203125 44.390625 34.515625 44.390625 
Q 29.4375 44.390625 26.265625 41.53125 
Q 23.09375 38.671875 22.3125 33.296875 
z
" id="DejaVuSans-Bold-65"/>
    <path id="DejaVuSans-Bold-20"/>
    <path d="M 25.875 7.90625 
L 25.875 -20.796875 
L 8.40625 -20.796875 
L 8.40625 54.6875 
L 25.875 54.6875 
L 25.875 46.6875 
Q 29.5 51.46875 33.890625 53.734375 
Q 38.28125 56 44 56 
Q 54.109375 56 60.59375 47.96875 
Q 67.09375 39.9375 67.09375 27.296875 
Q 67.09375 14.65625 60.59375 6.609375 
Q 54.109375 -1.421875 44 -1.421875 
Q 38.28125 -1.421875 33.890625 0.84375 
Q 29.5 3.125 25.875 7.90625 
z
M 37.5 43.3125 
Q 31.890625 43.3125 28.875 39.1875 
Q 25.875 35.0625 25.875 27.296875 
Q 25.875 19.53125 28.875 15.40625 
Q 31.890625 11.28125 37.5 11.28125 
Q 43.109375 11.28125 46.0625 15.375 
Q 49.03125 19.484375 49.03125 27.296875 
Q 49.03125 35.109375 46.0625 39.203125 
Q 43.109375 43.3125 37.5 43.3125 
z
" id="DejaVuSans-Bold-70"/>
    <path d="M 49.03125 39.796875 
Q 46.734375 40.875 44.453125 41.375 
Q 42.1875 41.890625 39.890625 41.890625 
Q 33.15625 41.890625 29.515625 37.5625 
Q 25.875 33.25 25.875 25.203125 
L 25.875 0 
L 8.40625 0 
L 8.40625 54.6875 
L 25.875 54.6875 
L 25.875 45.703125 
Q 29.25 51.078125 33.609375 53.53125 
Q 37.984375 56 44.09375 56 
Q 44.96875 56 45.984375 55.921875 
Q 47.015625 55.859375 48.96875 55.609375 
z
" id="DejaVuSans-Bold-72"/>
    <path d="M 45.609375 46.6875 
L 45.609375 75.984375 
L 63.1875 75.984375 
L 63.1875 0 
L 45.609375 0 
L 45.609375 7.90625 
Q 42 3.078125 37.640625 0.828125 
Q 33.296875 -1.421875 27.59375 -1.421875 
Q 17.484375 -1.421875 10.984375 6.609375 
Q 4.5 14.65625 4.5 27.296875 
Q 4.5 39.9375 10.984375 47.96875 
Q 17.484375 56 27.59375 56 
Q 33.25 56 37.625 53.734375 
Q 42 51.46875 45.609375 46.6875 
z
M 34.078125 11.28125 
Q 39.703125 11.28125 42.65625 15.375 
Q 45.609375 19.484375 45.609375 27.296875 
Q 45.609375 35.109375 42.65625 39.203125 
Q 39.703125 43.3125 34.078125 43.3125 
Q 28.515625 43.3125 25.5625 39.203125 
Q 22.609375 35.109375 22.609375 27.296875 
Q 22.609375 19.484375 25.5625 15.375 
Q 28.515625 11.28125 34.078125 11.28125 
z
" id="DejaVuSans-Bold-64"/>
    <path d="M 8.40625 54.6875 
L 25.875 54.6875 
L 25.875 0 
L 8.40625 0 
z
M 8.40625 75.984375 
L 25.875 75.984375 
L 25.875 61.71875 
L 8.40625 61.71875 
z
" id="DejaVuSans-Bold-69"/>
    <path d="M 27.484375 70.21875 
L 27.484375 54.6875 
L 45.515625 54.6875 
L 45.515625 42.1875 
L 27.484375 42.1875 
L 27.484375 19 
Q 27.484375 15.1875 29 13.84375 
Q 30.515625 12.5 35.015625 12.5 
L 44 12.5 
L 44 0 
L 29 0 
Q 18.65625 0 14.328125 4.3125 
Q 10.015625 8.640625 10.015625 19 
L 10.015625 42.1875 
L 1.3125 42.1875 
L 1.3125 54.6875 
L 10.015625 54.6875 
L 10.015625 70.21875 
z
" id="DejaVuSans-Bold-74"/>
    <path d="M 63.375 33.296875 
L 63.375 0 
L 45.796875 0 
L 45.796875 5.421875 
L 45.796875 25.484375 
Q 45.796875 32.5625 45.484375 35.25 
Q 45.171875 37.9375 44.390625 39.203125 
Q 43.359375 40.921875 41.59375 41.875 
Q 39.84375 42.828125 37.59375 42.828125 
Q 32.125 42.828125 29 38.59375 
Q 25.875 34.375 25.875 26.90625 
L 25.875 0 
L 8.40625 0 
L 8.40625 54.6875 
L 25.875 54.6875 
L 25.875 46.6875 
Q 29.828125 51.46875 34.265625 53.734375 
Q 38.71875 56 44.09375 56 
Q 53.5625 56 58.46875 50.1875 
Q 63.375 44.390625 63.375 33.296875 
z
" id="DejaVuSans-Bold-6e"/>
   </defs>
   <g transform="translate(575.753906 25.657812)scale(0.14 -0.14)">
    <use xlink:href="#DejaVuSans-Bold-47"/>
    <use x="82.080078" xlink:href="#DejaVuSans-Bold-6c"/>
    <use x="116.357422" xlink:href="#DejaVuSans-Bold-75"/>
    <use x="187.548828" xlink:href="#DejaVuSans-Bold-63"/>
    <use x="246.826172" xlink:href="#DejaVuSans-Bold-6f"/>
    <use x="315.527344" xlink:href="#DejaVuSans-Bold-73"/>
    <use x="375.048828" xlink:href="#DejaVuSans-Bold-65"/>
    <use x="442.871094" xlink:href="#DejaVuSans-Bold-20"/>
    <use x="477.685547" xlink:href="#DejaVuSans-Bold-70"/>
    <use x="549.267578" xlink:href="#DejaVuSans-Bold-72"/>
    <use x="598.583984" xlink:href="#DejaVuSans-Bold-65"/>
    <use x="666.40625" xlink:href="#DejaVuSans-Bold-64"/>
    <use x="737.988281" xlink:href="#DejaVuSans-Bold-69"/>
    <use x="772.265625" xlink:href="#DejaVuSans-Bold-63"/>
    <use x="831.542969" xlink:href="#DejaVuSans-Bold-74"/>
    <use x="879.345703" xlink:href="#DejaVuSans-Bold-69"/>
    <use x="913.623047" xlink:href="#DejaVuSans-Bold-6f"/>
    <use x="982.324219" xlink:href="#DejaVuSans-Bold-6e"/>
   </g>
  </g>
 </g>
 <defs>
  <clipPath id="p52aed273a3">
   <rect height="567.005" width="1006.725" x="162.375" y="90.12"/>
  </clipPath>
 </defs>
</svg>
